<svg xmlns="http://www.w3.org/2000/svg" width="171" height="171" viewBox="0 0 171 171">
  <g id="Group_101740" data-name="Group 101740" transform="translate(-33)">
    <circle id="Ellipse_48" data-name="Ellipse 48" cx="85.5" cy="85.5" r="85.5" transform="translate(33)" fill="#ec6a6b"/>
    <path id="Path_84484" data-name="Path 84484" d="M127.015,117.627A59.279,59.279,0,0,0,94.1,90.651a35.863,35.863,0,1,0-36.689,0,59.238,59.238,0,0,0-32.919,26.977,3.985,3.985,0,1,0,6.9,3.985,50.946,50.946,0,0,1,88.73,0,3.985,3.985,0,1,0,6.9-3.985ZM47.858,59.849A27.893,27.893,0,1,1,75.751,87.742,27.893,27.893,0,0,1,47.858,59.849Z" transform="translate(42.855 11.525)" fill="#fff"/>
  </g>
</svg>
